# xmcd CD database file
#
# Track frame offsets:
#	151
#	14365
#	29017
#	41000
#	54085
#	67379
#	81863
#	94547
#	108246
#	121374
#	133885
#	148743
#	161425
#	200550
#	213234
#	226405
#	247865
#	262288
#	272520
#	285613
#
# Disc length: 3983 seconds
#
# Revision: 0
# Processed by: cddbd v1.5.1PL2 Copyright (c) Steve Scherf et al.
# Submitted via: CDex 1.51
#
DISCID=280f8d14
DTITLE=Various Artist - History of Jazz
DYEAR=1937
DGENRE=Jazz
TTITLE0=WABASH STOMP (Eldridge) Roy Eldridge and His Orchestra - Jan 23
TTITLE1=DEDICATED TO YOU (Cahn-Chaplin) Ella Fitzgerald acc by The Mills Brothers - Feb 3
TTITLE2=RUNIN' WILD (Gibbs-Wood-Grey) Benny Goodman Quartet - Feb 3
TTITLE3=DIGA DIGA DOO (Fields-McHugh) Cootie Williams and His Rug Cutters - Mar 8
TTITLE4=MANHATTAN JAM (White) Edgar Hayes and His Orchestra - Mar 9
TTITLE5=ROCKIN' CHAIR (Carmichael) Mildred Bailey and Her Orchestra - Mar 23
TTITLE6=DARLING NELLIE GRAY (Hanby) Louis Armstrong with The Mills Brothers - Apr 7
TTITLE7=CHARACTERISTIC BLUES (Bechet-Sissle) Noble Sissle's Swingters - Apr 16
TTITLE8=WOLVERINE BLUES (Spikes-Morton-Spikes) Joe Marsala's Chicagoans - Apr 21
TTITLE9=ROSE ROOM (Williams-Hickman) Django Reinhardt et Le Quintette du Hot Club de France - Apr 22
TTITLE10=ON THE SUNNY SIDE OF THE STREET (Fields-McHugh) Lionel Hampton and His Orchestra Apr 26
TTITLE11=HONEYSUCKLE ROSE (Waller-Razaf) Coleman Hawkins and His All Stars Jam Band - Apr 28
TTITLE12=SING, SING, SING (Prima) Benny Goodman and His Orchestra - Jul 6
TTITLE13=THE ONYX HOP (Newton) Frankie Newton and His Uptown Serenaders - Jul 13
TTITLE14=LOCH LOMOND (Traditional) Maxine Sullivan and Her Orchestra - Aug 6
TTITLE15=I CAN'T GET STARTED (Duke-Gershwin) Bunny Berigan and His Orchestra - Aug 7
TTITLE16=TOPSY (Durham-Basie) Count Basie and His Orchestra - Aug 9
TTITLE17=TRAV'LIN' ALL ALONE (Johnson) Billie Holiday and Her Orchestra - Sep 13
TTITLE18=WHO'S SORRY NOW (Snyder-Ruby-Kalmar) Bob Crosby's Bob Cats - Nov 13
TTITLE19=I KNOW THAT YOU KNOW (Youmans-Caldwell) Jimmie Noone and His Orchestra - Dec 1
EXTD=YEAR: 1937
EXTT0=
EXTT1=
EXTT2=
EXTT3=
EXTT4=
EXTT5=
EXTT6=
EXTT7=
EXTT8=
EXTT9=
EXTT10=
EXTT11=
EXTT12=
EXTT13=
EXTT14=
EXTT15=
EXTT16=
EXTT17=
EXTT18=
EXTT19=
PLAYORDER=
